<svg width="26" height="26" viewBox="0 0 26 26" fill="none" xmlns="http://www.w3.org/2000/svg">
<path d="M14.7525 22.4857C15.0331 23.0765 14.7837 23.7816 14.1944 24.0651C13.2533 24.5178 12.2603 24.8533 11.2375 25.0626H10.7625C0.50252 22.9844 -0.554261 10.8126 0.31252 4.70903C0.352598 4.37802 0.529238 4.07816 0.799376 3.88371C1.07102 3.69074 1.41095 3.61801 1.73752 3.68777C3.27534 3.96238 4.85766 3.8184 6.31994 3.27065C7.78207 2.7244 9.0705 1.7937 10.0502 0.576524C10.2788 0.28707 10.6305 0.119346 11.0002 0.125274C11.3742 0.125274 11.7261 0.301913 11.9502 0.600274C12.9328 1.81152 14.2228 2.73629 15.6849 3.27958C17.147 3.82286 18.7278 3.96388 20.2627 3.68777C20.5893 3.61801 20.9292 3.69074 21.2009 3.88371C21.471 4.07816 21.6477 4.37801 21.6877 4.70903C22.0499 7.75644 21.9386 10.8411 21.3552 13.8526C21.2246 14.5087 20.5863 14.9332 19.9302 14.8026C19.2741 14.6719 18.8496 14.0337 18.9802 13.3776C19.4285 11.0308 19.568 8.63519 19.3959 6.25259C16.2698 6.44853 13.2106 5.28922 11.0001 3.07009C8.76615 5.28181 5.69343 6.43073 2.55691 6.22884C2.27191 9.87448 2.21254 20.7163 11.0001 22.6874C11.7498 22.5256 12.4786 22.2777 13.1733 21.9511C13.7567 21.6676 14.4602 21.9051 14.7526 22.4855L14.7525 22.4857ZM23.16 13.544L17.0565 19.6954L14.3252 16.0379C13.9318 15.5139 13.1867 15.407 12.6627 15.8004C12.1387 16.1938 12.0318 16.9389 12.4252 17.4629L15.9877 22.2129C16.194 22.489 16.5102 22.6627 16.8546 22.6879H16.9377C17.2554 22.6864 17.5582 22.5588 17.7808 22.3316L24.9058 15.2066C25.3675 14.7405 25.366 13.988 24.8999 13.5263C24.4338 13.0647 23.6812 13.0662 23.2196 13.5323L23.16 13.544Z" fill="black"/>
</svg>
