<svg width="32" height="32" viewBox="0 0 32 32" fill="none" xmlns="http://www.w3.org/2000/svg">
<path fill-rule="evenodd" clip-rule="evenodd" d="M3.33376 9.9325V11.4012C2.6975 11.5312 2.10877 11.8437 1.6425 12.3087C1.0175 12.935 0.666241 13.7825 0.666241 14.6662V17.3337C0.666241 18.2175 1.0175 19.065 1.6425 19.6912C2.10874 20.1562 2.6975 20.4687 3.33376 20.5987V22.0674C2.6975 22.1974 2.10877 22.5112 1.6425 22.9762C1.0175 23.6012 0.666241 24.4487 0.666241 25.3337V27.9999C0.666241 28.8837 1.0175 29.7324 1.6425 30.3574C2.26749 30.9824 3.11626 31.3337 4 31.3337H28C28.8837 31.3337 29.7325 30.9824 30.3575 30.3574C30.9825 29.7324 31.3338 28.8837 31.3338 27.9999V25.3337C31.3338 24.4487 30.9825 23.6012 30.3575 22.9762C29.8913 22.5112 29.3025 22.1974 28.6662 22.0674V20.5987C29.3025 20.4687 29.8912 20.1562 30.3575 19.6912C30.9825 19.065 31.3338 18.2175 31.3338 17.3337V14.6662C31.3338 13.7825 30.9825 12.935 30.3575 12.3087C29.8913 11.8437 29.3025 11.5312 28.6662 11.4012V9.9325C29.3025 9.8025 29.8912 9.48876 30.3575 9.02376C30.9825 8.39877 31.3338 7.55125 31.3338 6.66626V4.00002C31.3338 3.11628 30.9825 2.26751 30.3575 1.64252C29.7325 1.01752 28.8837 0.66626 28 0.66626H4C3.11626 0.66626 2.26749 1.01752 1.6425 1.64252C1.0175 2.26751 0.666241 3.11628 0.666241 4.00002V6.66626C0.666241 7.55125 1.0175 8.39877 1.6425 9.02376C2.10874 9.48876 2.6975 9.80252 3.33376 9.9325ZM30 25.3338V28C30 28.5313 29.7887 29.0388 29.4138 29.4138C29.0388 29.7888 28.5313 30 28 30H4C3.46874 30 2.96125 29.7888 2.58624 29.4138C2.21123 29.0388 2 28.5313 2 28V25.3338C2 24.8025 2.21125 24.2938 2.58624 23.9188C2.96123 23.5438 3.46874 23.3338 4 23.3338H28C28.5313 23.3338 29.0387 23.5438 29.4138 23.9188C29.7888 24.2938 30 24.8025 30 25.3338ZM4.66624 22H27.3338V20.6663H4.66624V22ZM28 12.6663C28.5313 12.6663 29.0387 12.8775 29.4138 13.2525C29.7888 13.6275 30 14.1362 30 14.6663V17.3337C30 17.8637 29.7887 18.3725 29.4138 18.7475C29.0387 19.1225 28.5313 19.3337 28 19.3337H4C3.46874 19.3337 2.96125 19.1225 2.58624 18.7475C2.21123 18.3725 2 17.8638 2 17.3337V14.6663C2 14.1363 2.21125 13.6275 2.58624 13.2525C2.96125 12.8775 3.46874 12.6663 4 12.6663H28ZM4.66624 10V11.3338H27.3338V10H4.66624ZM28 8.66626H4C3.46874 8.66626 2.96125 8.45626 2.58624 8.08127C2.21123 7.70628 2 7.19752 2 6.66626V4.00002C2 3.46876 2.21125 2.96127 2.58624 2.58626C2.96123 2.21125 3.46874 2.00002 4 2.00002H28C28.5313 2.00002 29.0387 2.21127 29.4138 2.58626C29.7888 2.96125 30 3.46876 30 4.00002V6.66626C30 7.19752 29.7887 7.70626 29.4138 8.08127C29.0388 8.45628 28.5313 8.66626 28 8.66626Z" fill="black"/>
</svg>
