<svg width="30" height="28" viewBox="0 0 30 28" fill="none" xmlns="http://www.w3.org/2000/svg">
<path d="M7.99359 0.727478C7.86109 0.727478 7.73359 0.779977 7.64107 0.874979C7.54732 0.968729 7.49482 1.09623 7.49482 1.22874V7.72858H0.998504C0.866005 7.72858 0.737253 7.78108 0.643496 7.87483C0.549745 7.96983 0.495995 8.09733 0.497246 8.23108V10.9623C0.495996 11.0948 0.549745 11.2236 0.643496 11.3174C0.737246 11.4124 0.865995 11.4649 0.998504 11.4636H1.7185V26.2722H1.01102H0.962267C0.691016 26.2922 0.484763 26.5247 0.497275 26.796C0.511025 27.0672 0.738526 27.2797 1.01104 27.2722H28.9922H28.9909C29.1259 27.276 29.2559 27.2247 29.3522 27.1297C29.4484 27.036 29.5022 26.9072 29.5022 26.7722C29.5022 26.6385 29.4484 26.5097 29.3522 26.4147C29.2559 26.321 29.1259 26.2697 28.9909 26.2722H28.2609V11.4636H28.9809C29.2559 11.4636 29.4797 11.2386 29.4784 10.9624V8.23109C29.4797 7.95484 29.2559 7.72984 28.9809 7.72859H22.4846V1.22875C22.4846 0.952502 22.2621 0.727504 21.9859 0.727504L7.99359 0.727478ZM8.49608 1.72873L21.4849 1.72748V26.2712L17.3687 26.2724V21.5812C17.3687 21.305 17.1437 21.0825 16.8675 21.0837H13.11C12.835 21.085 12.6125 21.3062 12.6113 21.5812V26.2724H8.4964L8.49608 1.72873ZM10.4523 3.53999C10.3186 3.53874 10.1911 3.59124 10.0961 3.68624C10.0023 3.77999 9.94983 3.90874 9.94983 4.04125V7.33501C9.95108 7.61001 10.1761 7.83376 10.4523 7.83251H13.6859C13.9609 7.83376 14.1859 7.61001 14.1872 7.33501V4.04125C14.1884 3.90875 14.1347 3.78 14.0409 3.68624C13.9472 3.59124 13.8184 3.53874 13.6859 3.53999H10.4523ZM16.2911 3.53999C16.0148 3.53999 15.7923 3.76499 15.7936 4.04124V7.335C15.7936 7.60875 16.0161 7.83125 16.2911 7.8325H19.5285C19.8022 7.83125 20.0248 7.60875 20.026 7.335V4.04124C20.0273 3.76499 19.8048 3.53999 19.5285 3.53999H16.2911ZM10.9499 4.54124H13.1862V6.83375L10.9499 6.8325V4.54124ZM16.7925 4.54124H19.0263V6.83375L16.7937 6.8325L16.7925 4.54124ZM1.49746 8.73004H7.4949V10.465L1.49874 10.4638L1.49746 8.73004ZM22.4837 8.73004H28.4773V10.465H22.4824L22.4837 8.73004ZM10.4511 9.3838L10.4523 9.38255C10.3186 9.3813 10.1911 9.43505 10.0961 9.5288C10.0023 9.62255 9.9498 9.7513 9.9498 9.88381V13.1776C9.95105 13.4538 10.1761 13.6763 10.4523 13.6751H13.6859C13.9609 13.6763 14.1859 13.4538 14.1871 13.1776V9.88381C14.1884 9.75131 14.1346 9.62255 14.0409 9.5288C13.9471 9.43505 13.8184 9.3813 13.6859 9.38255L10.4511 9.3838ZM16.2898 9.3838L16.291 9.38255C16.0148 9.3838 15.7923 9.60755 15.7935 9.8838V13.1776C15.7935 13.4513 16.016 13.6738 16.291 13.6751H19.5285C19.8022 13.6738 20.0247 13.4513 20.026 13.1776V9.8838C20.0272 9.60755 19.8047 9.3838 19.5285 9.38255L16.2898 9.3838ZM10.9487 10.385L13.1862 10.3838V12.6788H10.9499L10.9487 10.385ZM16.7912 10.385H19.025L19.0262 12.6788H16.7937L16.7912 10.385ZM2.71762 11.4663L7.49522 11.4638V26.2724H2.72018L2.71762 11.4663ZM22.4827 11.4663H27.2591L27.2616 26.2727H22.4852L22.4827 11.4663ZM10.4002 15.2289C10.1452 15.2551 9.95019 15.4701 9.95019 15.7276V19.0201C9.95019 19.1538 10.0027 19.2813 10.0964 19.3751C10.1914 19.4701 10.3189 19.5226 10.4527 19.5226H13.6863C13.8188 19.5226 13.9476 19.4701 14.0413 19.3751C14.1351 19.2813 14.1888 19.1538 14.1876 19.0201V15.7276C14.1863 15.4514 13.9613 15.2276 13.6863 15.2289H10.4527C10.4352 15.2276 10.4177 15.2276 10.4002 15.2289H10.4002ZM16.2427 15.2289H16.244C15.9877 15.2551 15.7927 15.4701 15.794 15.7276V19.0201C15.7928 19.2963 16.0153 19.5213 16.2915 19.5226H19.5289C19.8052 19.5213 20.0277 19.2963 20.0265 19.0201V15.7276C20.0252 15.4526 19.8027 15.2301 19.5289 15.2289H16.2915H16.244H16.2427ZM10.9503 16.2289H13.1865V18.5214L10.9503 18.5226V16.2289ZM16.7928 16.2289H19.0266V18.5214L16.7941 18.5226L16.7928 16.2289ZM13.6116 22.0839H16.3678V26.274L13.6116 26.2727V22.0839Z" fill="black"/>
</svg>
